<?xml version="1.0" encoding="UTF-8"?><svg id="Layer_2" xmlns="http://www.w3.org/2000/svg" viewBox="0 0 627.66 628.79"><defs><style>.cls-1{fill:#fff;}.cls-1,.cls-2{stroke-width:0px;}.cls-2{fill:#0071bc;}</style></defs><g id="Layer_1-2"><polygon id="OUTER" class="cls-2" points="69.25 0 553.98 0 564.01 .78 578.34 4.64 593.03 11.87 609.6 26.44 620.06 41.13 625.42 57.2 627.66 71.15 627.66 557.78 626.64 568.61 622.18 583.48 615.7 594.83 609.75 603.34 598.26 613.75 588.53 619.83 578.67 624.29 564.35 627.94 550.27 628.79 71.67 628.79 59.65 627.44 49.23 624.25 38.06 619.12 23.94 609.29 13.27 597.45 5.88 585.43 1.18 570.06 0 556.95 0 67.65 1.34 57.9 5.21 44.63 13.36 30.85 26.3 17.49 41 7.99 53.69 3.04 69.25 0"/><polygon id="INNER" class="cls-1" points="137.58 86.94 152.94 88.3 166.93 94.28 179.05 104.35 188.27 118.51 192.53 134.21 192.53 151.28 187.07 166.98 175.98 179.61 163.18 188.31 150.04 193.6 132.63 193.6 116.76 189.34 101.91 178.75 90.31 162.71 86.21 146.5 86.21 129.26 91.16 116.12 101.74 101.96 115.56 92.74 127 88.13 137.58 86.94"/><polygon id="INNER-2" class="cls-1" points="92.49 238.01 95.89 234.22 181.21 234.22 185.75 238.01 185.75 528.44 182.5 532.36 97.96 532.36 92.49 529.02 92.49 238.01"/><polygon id="INNER-3" class="cls-1" points="244.1 238.91 247.41 234.22 327.31 234.22 332.53 236.57 332.53 275.42 342.96 262.86 355.76 249.82 366.67 241.52 381.13 234.22 394.64 229.43 410.29 227.3 427.12 227.3 446.09 228.72 464.82 233.22 481.65 238.44 494.93 248.4 507.73 260.73 517.69 277.56 525.04 298.66 530.49 320.94 532.62 344.65 532.62 528.39 530.25 532.42 444.43 532.42 439.69 529.57 439.69 364.09 437.55 348.21 432.81 334.46 425.22 321.89 413.84 313.12 401.52 309.8 386.58 309.8 375.67 311.22 364.3 315.49 351.26 324.74 342.96 338.96 338.69 355.08 337.27 370.02 337.27 527.13 333.63 532.42 247.79 532.42 244.1 528.44 244.1 238.91"/></g></svg>