<?xml version="1.0" encoding="UTF-8"?>
<svg id="Layer_2" xmlns="http://www.w3.org/2000/svg" viewBox="0 0 479.66 91.05">
    <defs>
        <style>.cls-1{fill:#ff0;}.cls-1,.cls-2{stroke-width:0px;}.cls-2{fill:#006837;}</style>
    </defs>
    <g id="Layer_1-2">
        <g id="OUTER">
            <rect class="cls-2" width="479.66" height="91.05" />
        </g>
        <polygon id="INNER" class="cls-1" points="42.65 69.05 42.65 27.58 51.93 69.05 42.65 69.05" />
        <polygon id="INNER-2" class="cls-1" points="63.2 69.05 72.6 69.05 72.6 27.58 63.2 69.05" />
        <polygon id="INNER-3" class="cls-1" points="57.75 59.99 66.66 21.29 48.74 21.29 57.75 59.99" />
        <polygon id="INNER-4" class="cls-1"
            points="82.71 69.05 82.71 21.29 106.9 21.29 89.75 69.05 82.71 69.05" />
        <polygon id="INNER-5" class="cls-1"
            points="100.91 69.05 104.05 60.27 123.12 60.27 125.87 69.05 100.91 69.05" />
        <polygon id="INNER-6" class="cls-1"
            points="106.9 51.47 113.61 31.02 119.99 51.47 106.9 51.47" />
        <polygon id="INNER-7" class="cls-1"
            points="120.51 21.29 137.51 69.05 153.7 69.05 152.53 68.27 151.24 67.28 150.09 66.22 148.75 64.86 146.65 62.16 144.79 58.89 143.59 55.64 142.85 52.49 142.39 48.8 142.28 44.68 142.6 40.3 143.5 35.88 144.4 33.16 145.71 30.4 147.18 28 148.68 26.02 150.13 24.41 151.61 23.14 153.03 21.99 154.09 21.29 120.51 21.29" />
        <polygon id="INNER-8" class="cls-1"
            points="190.33 43.16 168.81 43.16 168.81 51.79 180.79 51.79 180.6 53.11 180.14 54.72 179.57 56.06 178.54 57.84 177.06 59.59 175.28 61.06 173.83 61.92 172.16 62.59 170 63.04 167.61 63.24 165.21 62.98 163.01 62.43 160.52 61.37 158.85 60.22 157.46 59.06 156.15 57.51 155.05 55.6 154.4 53.84 153.85 51.52 153.52 49.27 153.34 46.36 153.46 42.34 153.81 39.59 154.46 36.98 155.46 34.39 156.54 32.57 158.19 30.57 159.68 29.27 161.35 28.23 163.43 27.37 165.29 26.9 167.17 26.74 169.33 26.82 171.67 27.23 173.18 27.74 174.73 28.45 176.36 29.64 177.46 30.8 178.28 32.08 179.07 33.63 179.56 35.32 190.33 35.32 190.13 33.88 189.74 32.37 189.01 30.43 188.33 28.82 187.31 27.21 186.11 25.54 184.66 24.03 183.58 22.99 182.24 21.95 181.2 21.29 200.63 21.29 200.63 69.05 190.44 69.05 190.33 43.16" />
        <polygon id="INNER-9" class="cls-1"
            points="177.55 69.05 178.52 68.28 179.85 67.05 180.94 65.96 182.19 64.56 182.94 69.05 177.55 69.05" />
        <polygon id="INNER-10" class="cls-1"
            points="213.2 21.29 232.61 55.46 232.61 21.29 213.2 21.29" />
        <polygon id="INNER-11" class="cls-1"
            points="210.67 34.2 230.69 69.05 210.67 69.05 210.67 34.2" />
        <rect id="INNER-12" class="cls-1" x="242.66" y="21.29" width="10.5" height="47.76" />
        <polygon id="INNER-13" class="cls-1"
            points="290.94 21.29 296.48 21.29 296.48 28.14 312 28.14 312 69.05 292.28 69.05 292.28 61.78 263.68 61.78 263.68 48.19 288.76 48.19 288.76 39.38 263.68 39.38 263.68 28.22 290.94 28.22 290.94 21.29" />
        <polygon id="INNER-14" class="cls-1"
            points="338.26 21.29 343.88 21.29 343.88 69.05 322.82 69.05 322.82 28.14 338.34 28.14 338.26 21.29" />
        <polygon id="INNER-15" class="cls-1"
            points="354.7 21.29 360.41 21.29 360.41 28.14 376.01 28.14 376.01 69.05 354.7 69.05 354.7 21.29" />
        <polygon id="INNER-16" class="cls-1"
            points="402.36 21.29 409.15 21.29 409.15 69.05 386.92 69.05 386.92 28.22 402.44 28.22 402.36 21.29" />
        <rect id="INNER-17" class="cls-1" x="22.32" y="21.29" width="11.77" height="47.76" />
        <polygon id="INNER-18" class="cls-1"
            points="446.98 21.65 458.78 21.65 458.78 69.56 446.98 69.56 446.98 61.86 419.85 61.86 419.85 48.16 447.05 48.16 447.05 39.3 419.72 39.3 419.72 28.16 447.07 28.16 446.98 21.65" />
    </g>
</svg>