<?xml version="1.0" encoding="UTF-8"?>
<svg id="Layer_2" xmlns="http://www.w3.org/2000/svg" viewBox="0 0 415.63 66.41">
    <defs>
        <style>.cls-1{fill:#ff0;}.cls-1,.cls-2{stroke-width:0px;}.cls-2{fill:#006837;}</style>
    </defs>
    <g id="Layer_1-2">
        <polyline id="OUTER" class="cls-2"
            points="414.48 16.44 386.88 16.44 387.14 27.34 412.3 27.34 412.17 36.35 387.14 36.35 387.14 49.53 415.63 49.67 415.63 66.41 0 66.41 0 0 414.48 0" />
        <polygon id="INNER" class="cls-1" points="10.06 57.09 10.06 15.62 19.34 57.09 10.06 57.09" />
        <polygon id="INNER-2" class="cls-1" points="30.61 57.09 40.01 57.09 40.01 15.62 30.61 57.09" />
        <polygon id="INNER-3" class="cls-1" points="25.17 48.03 34.07 9.33 16.15 9.33 25.17 48.03" />
        <polygon id="INNER-4" class="cls-1"
            points="50.13 57.09 50.13 9.33 74.32 9.33 57.16 57.09 50.13 57.09" />
        <polygon id="INNER-5" class="cls-1"
            points="68.32 57.09 71.46 48.3 90.53 48.3 93.28 57.09 68.32 57.09" />
        <polygon id="INNER-6" class="cls-1" points="74.32 39.51 81.02 19.06 87.4 39.51 74.32 39.51" />
        <polygon id="INNER-7" class="cls-1"
            points="87.92 9.33 104.92 57.09 121.11 57.09 119.94 56.3 118.65 55.31 117.5 54.25 116.16 52.9 114.06 50.2 112.2 46.93 111 43.68 110.26 40.53 109.8 36.84 109.69 32.72 110.01 28.34 110.91 23.92 111.81 21.2 113.12 18.44 114.59 16.04 116.09 14.06 117.54 12.45 119.02 11.18 120.45 10.03 121.5 9.33 87.92 9.33" />
        <polygon id="INNER-8" class="cls-1"
            points="157.74 31.2 136.22 31.2 136.22 39.82 148.2 39.82 148.01 41.14 147.55 42.76 146.98 44.1 145.96 45.88 144.47 47.63 142.69 49.1 141.24 49.95 139.57 50.63 137.41 51.08 135.02 51.28 132.62 51.01 130.42 50.46 127.93 49.4 126.26 48.26 124.87 47.1 123.56 45.55 122.46 43.63 121.81 41.88 121.26 39.55 120.93 37.31 120.75 34.39 120.87 30.38 121.22 27.62 121.87 25.01 122.87 22.42 123.95 20.61 125.6 18.61 127.09 17.31 128.76 16.26 130.84 15.41 132.7 14.94 134.58 14.78 136.74 14.86 139.08 15.27 140.59 15.78 142.14 16.49 143.77 17.67 144.87 18.83 145.69 20.12 146.49 21.67 146.97 23.36 157.74 23.36 157.54 21.91 157.15 20.4 156.42 18.47 155.74 16.86 154.72 15.25 153.52 13.57 152.07 12.06 150.99 11.02 149.65 9.98 148.61 9.33 168.04 9.33 168.04 57.09 157.85 57.09 157.74 31.2" />
        <polygon id="INNER-9" class="cls-1"
            points="144.96 57.09 145.93 56.32 147.26 55.08 148.35 54 149.6 52.6 150.35 57.09 144.96 57.09" />
        <polygon id="INNER-10" class="cls-1"
            points="180.61 9.33 200.02 43.49 200.02 9.33 180.61 9.33" />
        <polygon id="INNER-11" class="cls-1"
            points="178.08 22.24 198.1 57.09 178.08 57.09 178.08 22.24" />
        <rect id="INNER-12" class="cls-1" x="210.07" y="9.33" width="10.5" height="47.76" />
        <polygon id="INNER-13" class="cls-1"
            points="258.35 9.33 263.89 9.33 263.89 16.18 279.41 16.18 279.41 57.09 259.7 57.09 259.7 49.82 231.09 49.82 231.09 36.23 256.17 36.23 256.17 27.42 231.09 27.42 231.09 16.26 258.35 16.26 258.35 9.33" />
        <polygon id="INNER-14" class="cls-1"
            points="305.67 9.33 311.29 9.33 311.29 57.09 290.23 57.09 290.23 16.18 305.75 16.18 305.67 9.33" />
        <polygon id="INNER-15" class="cls-1"
            points="322.11 9.33 327.82 9.33 327.82 16.18 343.42 16.18 343.42 57.09 322.11 57.09 322.11 9.33" />
        <polygon id="INNER-16" class="cls-1"
            points="369.77 9.33 376.56 9.33 376.56 57.09 354.33 57.09 354.33 16.26 369.85 16.26 369.77 9.33" />
    </g>
</svg>