<?xml version="1.0" encoding="UTF-8"?>
<svg id="Layer_2" xmlns="http://www.w3.org/2000/svg" viewBox="0 0 416.12 60.62">
    <defs>
        <style>.cls-1{fill:#ff0;}.cls-1,.cls-2{stroke-width:0px;}.cls-2{fill:#009245;}</style>
    </defs>
    <g id="Layer_1-2">
        <polygon id="OUTER" class="cls-2"
            points="0 60.62 0 1.33 15.8 1.33 25.17 42.15 34.57 1.5 50.14 1.5 50.14 51.29 57.22 51.29 75.04 1.33 87.34 1.33 104.93 51.29 121.11 51.29 119.21 49.99 117.68 48.66 116.12 47.02 114.64 45.23 113.08 42.76 111.67 39.82 110.83 37.04 110.26 34.53 109.88 31.79 109.73 28.94 109.69 25.81 109.88 23.57 110.41 20.18 111.29 16.83 112.73 13.29 114.26 10.62 116.2 8 118.79 5.44 122.25 3.08 125.11 1.75 128.27 .8 131.27 .23 134.09 0 137.02 0 140.18 .42 144.49 1.5 147.57 2.82 149.17 3.85 150.96 5.18 152.98 7.27 154.23 8.76 156.02 11.69 156.97 14.13 157.7 17.55 146.96 17.55 146.5 16.03 145.67 14.2 144.18 12.3 142.39 10.77 140.34 9.9 137.79 9.14 135.5 8.95 133.22 9.02 130.93 9.56 128.72 10.47 126.52 11.95 124.8 13.74 123.17 16.07 122.18 18.39 121.45 20.9 120.96 23.87 120.73 26.69 120.77 29.51 120.92 31.79 121.34 34.38 122.02 36.63 122.94 38.64 124.31 40.74 126.4 42.57 128.15 43.78 130.36 44.74 132.46 45.19 134.78 45.5 137.25 45.31 139.54 44.89 142.24 43.67 144.45 41.84 146.09 39.86 146.96 38.11 147.95 35.56 148.22 34.08 136.22 34.08 136.22 25.43 157.85 25.43 157.85 51.29 168.05 51.29 168.05 1.5 179.48 1.5 200.08 37.39 200.08 1.5 209.97 1.5 209.97 51.29 220.58 51.29 220.58 1.5 258.51 1.5 258.51 10.46 230.98 10.46 230.98 21.58 256.37 21.58 256.37 30.31 230.88 30.31 230.88 43.91 259.84 43.91 259.84 51.29 279.41 51.29 279.41 10.67 263.81 10.67 263.81 1.5 305.82 1.5 305.82 10.46 290.32 10.46 290.32 51.29 311.23 51.29 311.23 1.5 322.14 1.5 322.14 51.29 343.45 51.29 343.45 10.36 327.95 10.36 327.95 1.5 370.06 1.5 370.06 10.16 354.26 10.16 354.26 51.29 376.49 51.29 376.49 1.5 414.52 1.5 414.52 10.67 386.89 10.67 386.89 21.58 412.18 21.58 412.18 30.31 387.09 30.31 387.09 43.91 416.12 43.91 416.12 60.62 0 60.62" />
        <polyline id="INNER" class="cls-1" points="10.04 9.71 19.36 51.29 10.06 51.29" />
        <polygon id="INNER-2" class="cls-1" points="30.67 51.29 40.09 9.76 40.09 51.29 30.67 51.29" />
        <polygon id="INNER-3" class="cls-1"
            points="68.42 51.29 71.4 42.58 90.5 42.58 93.24 51.29 68.42 51.29" />
        <polygon id="INNER-4" class="cls-1" points="74.35 33.61 81.02 13.28 87.47 33.61 74.35 33.61" />
        <polygon id="INNER-5" class="cls-1"
            points="144.87 51.29 145.92 50.5 147.23 49.33 148.34 48.15 149.55 46.75 150.35 51.29 144.87 51.29" />
        <polygon id="INNER-6" class="cls-1"
            points="178.03 51.29 178.12 16.38 198.14 51.29 178.03 51.29" />
    </g>
</svg>